Coordinates
version=1
nRows=12
nColumns=33
inDegrees=yes

Units are S.I. units (second, meters, Newtons, ...)
Angles are in degrees.

endheader
time	ground_thorax_rot_x	ground_thorax_rot_y	ground_thorax_rot_z	ground_thorax_tx	ground_thorax_ty	ground_thorax_tz	clav_prot_r	clav_elev_r	scapula_abduction_r	scapula_elevation_r	scapula_upward_rot_r	scapula_winging_r	shoulder_elv_r	plane_of_elev_r	axial_rot_r	elbow_flexion_r	pro_sup_r	wrist_flex_r	wrist_dev_r	clav_prot_l	clav_elev_l	scapula_abduction_l	scapula_elevation_l	scapula_upward_rot_l	scapula_winging_l	shoulder_elv_l	plane_of_elev_l	axial_rot_l	elbow_flexion_l	pro_sup_l	wrist_flex_l	wrist_dev_l
      4.25000000	    -35.86000398	    -11.98134778	     10.45025390	    -63.18858039	    769.07466355	     13.02503331	      3.40425835	    -45.00000000	     45.00000000	    -45.00000000	     -6.85345461	  -3333.72535408	  -1378.47375822	     28.79809939	     70.76440461	   2168.97988062	     20.85544960	     16.79095605	     11.21317928	      6.34260811	     34.76763973	    -45.00000000	    -28.86605103	      4.19052476	   2975.33576378	  -6406.89277169	     14.30260890	    179.99999979	      2.01730366	   -141.41475439	      5.81883743	    -14.40172681
      4.26000000	    -36.00059237	    -11.88974881	     10.25654539	    -63.05619830	    769.10495490	     13.12218461	      2.14355739	    -45.00000000	     45.00000000	    -45.00000000	     -6.12293048	  -3333.67923275	  -1378.63877071	     28.41769808	     70.39102638	   2169.06476490	     22.04144655	     16.93342797	     11.60160707	      7.37289956	     35.25429338	    -45.00000000	    -29.05577518	      4.15632135	   2975.30959585	  -6407.19007719	     14.44938915	    179.99999979	      2.07866572	   -141.87254145	      5.69712170	    -14.44373046
      4.27000000	    -35.95107291	    -11.90658444	     10.28470110	    -63.05584655	    769.10519541	     13.12318065	      2.15095015	    -45.00000000	     45.00000000	    -45.00000000	     -6.11864141	  -3333.63990086	  -1378.67785727	     28.43858290	     70.39358390	   2169.06855531	     22.05213715	     16.93302247	     11.59291680	      7.36318127	     35.25151353	    -45.00000000	    -29.05344149	      4.17778486	   2975.25563809	  -6407.20569862	     14.48311003	    179.99999979	      2.06508785	   -141.87786981	      5.70018461	    -14.44737987
      4.28000000	    -35.88793086	    -11.70320307	     10.08505140	    -63.10879283	    769.12860021	     13.24723141	      2.59327542	    -45.00000000	     45.00000000	    -45.00000000	     -6.09323174	  -3333.67868634	  -1378.76963028	     28.63340798	     70.49457203	   2169.07074922	     23.07989438	     16.99143021	     11.10787052	      6.85493985	     34.90219106	    -45.00000000	    -28.88172169	      4.03715630	   2974.82615886	  -6407.03458329	     14.41114276	    179.99999979	      1.89994634	   -142.30930616	      5.90471096	    -14.57945861
      4.29000000	    -35.79747082	    -11.84869542	     10.23697702	    -63.28570430	    769.12081803	     13.27482995	      2.25348869	    -45.00000000	     45.00000000	    -45.00000000	     -5.92871838	  -3333.62529251	  -1378.68179041	     28.43449646	     70.38096081	   2169.20608742	     23.92853510	     17.09475834	     11.38971214	      7.21879868	     35.02715264	    -45.00000000	    -28.85392598	      4.09338826	   2975.12816537	  -6407.25516262	     14.58300327	    179.99999979	      2.07810542	   -142.66886502	      5.83773965	    -14.51846410
      4.30000000	    -35.78487919	    -11.69021729	     10.06890936	    -63.56154876	    769.09880686	     13.28002758	      2.46717407	    -45.00000000	     45.00000000	    -45.00000000	     -6.08945231	  -3333.73549351	  -1378.79155962	     28.69721729	     70.33845275	   2169.18873946	     24.63183196	     17.11316871	     10.94887733	      6.86852536	     34.90668806	    -45.00000000	    -28.82713588	      4.22788357	   2974.86504767	  -6407.13977582	     14.41184199	    179.99999979	      2.01040091	   -142.98419988	      5.97841998	    -14.59176336
      4.31000000	    -35.69064773	    -11.81130683	     10.24766634	    -63.93219483	    769.06294273	     13.26317809	      2.30252990	    -45.00000000	     45.00000000	    -45.00000000	     -5.92001004	  -3333.63735340	  -1378.62589546	     28.44316558	     70.20300808	   2169.33460885	     25.26138610	     17.23016453	     11.28493483	      7.07637089	     34.95229687	    -45.00000000	    -28.76420606	      4.28214861	   2975.28092190	  -6407.38418053	     14.56487194	    179.99999979	      2.20012783	   -143.23891829	      5.96192331	    -14.53817321
      4.32000000	    -35.69535564	    -11.68430791	     10.09488722	    -64.37671501	    769.01615926	     13.22657634	      2.44940635	    -45.00000000	     45.00000000	    -45.00000000	     -6.19075423	  -3333.78599617	  -1378.78076508	     28.77876741	     70.16425151	   2169.27226600	     25.76165354	     17.19730476	     10.81714580	      6.77486903	     34.89557353	    -45.00000000	    -28.78929821	      4.50602299	   2975.01802051	  -6407.23200419	     14.35445779	    179.99999979	      2.18409576	   -143.45685659	      6.05744276	    -14.57414557
      4.33000000	    -35.58593136	    -11.80046675	     10.29710536	    -64.90964875	    768.95838959	     13.17074067	      2.34554261	    -45.00000000	     45.00000000	    -45.00000000	     -6.01854959	  -3333.68318698	  -1378.54226894	     28.47006217	     70.03512012	   2169.37371073	     26.22504475	     17.32605442	     11.20831544	      6.92956398	     34.95021956	    -45.00000000	    -28.78356596	      4.56471833	   2975.48704100	  -6407.48365676	     14.55380535	    179.99999979	      2.35502901	   -143.62561266	      6.08499682	    -14.53873290
      4.34000000	    -35.59845635	    -11.59604419	     10.12497001	    -65.51946811	    768.89282603	     13.09758421	      2.47358592	    -45.00000000	     45.00000000	    -45.00000000	     -6.33475973	  -3333.94574434	  -1378.71943376	     28.93697752	     69.99202238	   2169.32182411	     26.55223791	     17.23915438	     10.65314335	      6.64437264	     34.92145339	    -45.00000000	    -28.83884679	      4.85678592	   2975.23901165	  -6407.43026994	     14.23650129	    179.99999979	      2.19553076	   -143.78115644	      6.12462864	    -14.59048158
      4.35000000	    -35.51211591	    -11.84828459	     10.43032691	    -66.20371984	    768.82217713	     13.00861970	      2.34563176	    -45.00000000	     45.00000000	    -45.00000000	     -6.07972161	  -3333.71278646	  -1378.39501667	     28.36806899	     69.84862235	   2169.48025741	     26.90295105	     17.46134395	     11.25511658	      6.82688642	     35.04580213	    -45.00000000	    -28.82200421	      4.82785923	   2975.88032290	  -6407.61483602	     14.50232347	    179.99999979	      2.43364351	   -143.87705879	      6.20078357	    -14.55784132
      4.36000000	    -35.57791035	    -11.57400976	     10.12191491	    -66.95900842	    768.75022032	     12.90552667	      2.52804616	    -45.00000000	     45.00000000	    -45.00000000	     -6.57086558	  -3334.06912256	  -1378.74410486	     29.08665802	     69.81665929	   2169.34528846	     27.13831753	     17.25290134	     10.51277741	      6.52310997	     34.99827094	    -45.00000000	    -28.92238501	      5.13412995	   2975.48002638	  -6407.46268738	     14.17243129	    179.99999979	      2.34850118	   -143.96827695	      6.18737875	    -14.56400025
